<?xml version="1.0" encoding="UTF-8" standalone="no"?><!DOCTYPE svg PUBLIC "-//W3C//DTD SVG 1.1//EN" "http://www.w3.org/Graphics/SVG/1.1/DTD/svg11.dtd"><svg width="100%" height="100%" viewBox="0 0 16 16" version="1.1" xmlns="http://www.w3.org/2000/svg" xmlns:xlink="http://www.w3.org/1999/xlink" xml:space="preserve" xmlns:serif="http://www.serif.com/" style="fill-rule:evenodd;clip-rule:evenodd;stroke-linejoin:round;stroke-miterlimit:2;"><rect x="3.501" y="3.749" width="9.13" height="8.319" style="fill:#fff;"/><path d="M16,8c0,4.389 -3.611,8 -8,8c-4.389,0 -8,-3.611 -8,-8c-0,-4.389 3.611,-8 8,-8c4.389,-0 8,3.611 8,8Zm-10.646,-3.354c-0.094,-0.094 -0.221,-0.147 -0.354,-0.147c-0.275,0 -0.501,0.226 -0.501,0.501c0,0.133 0.053,0.26 0.147,0.354l2.647,2.646l-2.647,2.646c-0.094,0.094 -0.147,0.221 -0.147,0.354c0,0.275 0.226,0.501 0.501,0.501c0.133,-0 0.26,-0.053 0.354,-0.147l2.646,-2.647l2.646,2.647c0.094,0.094 0.221,0.147 0.354,0.147c0.275,-0 0.501,-0.226 0.501,-0.501c-0,-0.133 -0.053,-0.26 -0.147,-0.354l-2.647,-2.646l2.647,-2.646c0.094,-0.094 0.147,-0.221 0.147,-0.354c-0,-0.275 -0.226,-0.501 -0.501,-0.501c-0.133,0 -0.26,0.053 -0.354,0.147l-2.646,2.647l-2.646,-2.647Z" style="fill:#ff323b;fill-rule:nonzero;"/></svg>